<?xml version="1.0" encoding="UTF-8" standalone="no"?>
<!-- Created with Inkscape (http://www.inkscape.org/) -->

<svg
   xmlns:dc="http://purl.org/dc/elements/1.1/"
   xmlns:cc="http://creativecommons.org/ns#"
   xmlns:rdf="http://www.w3.org/1999/02/22-rdf-syntax-ns#"
   xmlns:svg="http://www.w3.org/2000/svg"
   xmlns="http://www.w3.org/2000/svg"
   xmlns:sodipodi="http://sodipodi.sourceforge.net/DTD/sodipodi-0.dtd"
   xmlns:inkscape="http://www.inkscape.org/namespaces/inkscape"
   width="270.93332mm"
   height="270.93332mm"
   viewBox="0 0 270.93332 270.93332"
   version="1.1"
   id="svg8"
   inkscape:version="0.92.2 5c3e80d, 2017-08-06"
   sodipodi:docname="voluntuer.svg"
   inkscape:export-filename="/Users/solderneer/Documents/Projects/emojee/assets/volunteur.png"
   inkscape:export-xdpi="300"
   inkscape:export-ydpi="300">
  <defs
     id="defs2" />
  <sodipodi:namedview
     id="base"
     pagecolor="#ffffff"
     bordercolor="#666666"
     borderopacity="1.0"
     inkscape:pageopacity="0.0"
     inkscape:pageshadow="2"
     inkscape:zoom="0.35"
     inkscape:cx="440.00003"
     inkscape:cy="361.55472"
     inkscape:document-units="mm"
     inkscape:current-layer="layer1"
     showgrid="false"
     fit-margin-top="0"
     fit-margin-left="0"
     fit-margin-right="0"
     fit-margin-bottom="0"
     inkscape:window-width="1440"
     inkscape:window-height="852"
     inkscape:window-x="0"
     inkscape:window-y="0"
     inkscape:window-maximized="1" />
  <metadata
     id="metadata5">
    <rdf:RDF>
      <cc:Work
         rdf:about="">
        <dc:format>image/svg+xml</dc:format>
        <dc:type
           rdf:resource="http://purl.org/dc/dcmitype/StillImage" />
        <dc:title />
      </cc:Work>
    </rdf:RDF>
  </metadata>
  <g
     inkscape:label="Layer 1"
     inkscape:groupmode="layer"
     id="layer1"
     transform="translate(282.7262,171.99287)">
    <rect
       style="fill:#ffffff;fill-opacity:1;stroke:none;stroke-width:3.60455227;stroke-miterlimit:4;stroke-dasharray:none;stroke-opacity:1"
       id="rect882"
       width="270.93332"
       height="270.93332"
       x="-282.7262"
       y="-171.99287"
       ry="37.041664" />
    <path
       style="fill:#ff9800;fill-opacity:1;stroke-width:0.47502112"
       d="m -152.33604,50.134591 c -4.679,-0.636704 -8.39361,-1.794045 -14.03506,-4.37284 l -3.68215,-1.683146 3.21284,-3.162249 c 1.76707,-1.73925 3.8296,-4.337937 4.58342,-5.774868 1.28475,-2.449027 1.37056,-2.962103 1.37056,-8.194253 V 21.3656 l 4.51269,-0.0018 c 5.49093,-0.0036 7.57439,-0.536416 9.82924,-2.51619 3.41209,-2.995856 4.88663,-8.41982 4.89285,-17.99764739 10e-4,-3.07930521 0.20929,-5.68061341 0.46535,-5.83883691 0.48908,-0.3023025 5.68041,-0.9054881 12.34783,-1.4347599 l 4.02173,-0.3192497 -3.6123,3.7809295 c -4.61354,4.8289311 -7.08944,9.6773441 -8.45931,16.5653124 -1.06154,5.337664 -1.16149,6.632313 -0.54156,7.01546 0.22989,0.142021 1.10532,-1.715695 1.94539,-4.128401 4.34914,-12.490916 10.95756,-21.7254536 21.06421,-29.434908 2.04286,-1.558277 3.61964,-2.927884 3.50398,-3.043522 -0.11559,-0.115627 -2.85585,0.427259 -6.08935,1.206497 -9.65004,2.325542 -15.61487,3.116146 -23.45483,3.10882 -8.40938,-0.0072 -11.5069,-0.729652 -15.2725,-3.558861 -3.06788,-2.305021 -4.22482,-4.932542 -3.835,-8.709718 0.52388,-5.075705 4.00164,-9.464756 9.82226,-12.395962 3.88903,-1.958502 16.46291,-6.249382 24.60686,-8.397183 7.20846,-1.901119 17.73142,-2.431792 22.26644,-1.122906 6.164333,1.779126 10.296072,5.264863 13.029546,10.992334 2.455733,5.145472 2.971004,9.312167 2.694994,21.792547 -0.226681,10.2498998 -0.331077,11.2632876 -1.688338,16.3882395 -3.481971,13.1477805 -8.760727,23.0205475 -16.973172,31.7445745 -11.84134,12.578996 -27.5251,17.660642 -46.52662,15.074936 z m -31.3514,-12.332639 c -1.30631,-0.321135 -2.9095,-0.868178 -3.56265,-1.21567 -4.56282,-2.427446 -13.75583,-11.866904 -18.29263,-18.783063 -5.23735,-7.984088 -7.07266,-12.8716194 -7.0457,-18.76333042 0.0344,-7.53171328 3.44098,-13.06487258 8.77135,-14.24702558 5.23514,-1.161037 5.24803,-1.152708 10.94905,7.083738 9.37738,13.5477344 16.92316,22.299606 23.40814,27.149633 3.69122,2.760628 4.62955,4.427633 4.90461,8.713596 0.36969,5.760632 -1.68987,8.42063 -7.73999,9.996485 -3.29583,0.858449 -8.05564,0.885882 -11.39218,0.06571 z m 22.68257,-21.44525 c -1.37144,-0.369287 -3.40216,-1.134253 -4.51271,-1.699897 -5.62795,-2.86659 -18.52353,-18.241295 -24.29235,-28.962476 -4.68983,-8.715911 -5.74596,-14.975385 -3.34101,-19.801515 1.48192,-2.97381 3.25022,-4.53654 7.32593,-6.474286 2.74502,-1.305098 3.56467,-1.467972 7.38743,-1.467972 3.99889,0 4.54747,0.122619 7.83788,1.750973 1.94591,0.963029 4.22247,2.459351 5.05904,3.325145 1.41599,1.465439 1.4906,1.705406 1.08013,3.474262 -0.2425,1.045042 -0.44393,4.037684 -0.44762,6.650285 -0.005,4.052047 0.16428,5.117393 1.15638,7.24839 2.70113,5.801888 5.69935,8.733452 12.89559,12.6090687 5.04896,2.7191385 5.58918,3.70949 5.81308,10.6566908 0.1537,4.7684288 0.0604,5.5540405 -0.87307,7.3628255 -1.42429,2.759424 -2.74721,4.12734 -4.99481,5.16468 -2.28745,1.055721 -6.52619,1.12452 -10.09389,0.163915 z m 0.93242,-52.605423 c -0.76321,-0.955704 -7.45046,-12.250664 -14.26208,-24.08904 -7.17796,-12.474973 -18.00354,-33.557674 -19.23634,-37.462445 -0.48579,-1.538778 -0.80453,-4.104994 -0.80453,-6.477304 0,-3.37826 0.18599,-4.28496 1.3273,-6.46967 1.88841,-3.61482 4.78077,-5.35482 8.83775,-5.31666 1.85291,0.0173 3.67005,0.3577 4.81712,0.90201 2.35242,1.11629 7.01771,5.7262 9.81359,9.69708 2.43985,3.46526 10.56716,17.93335 19.47918,34.676532 10.24376,19.245133 12.4909,23.671042 12.17751,23.984457 -0.16734,0.167326 -2.19615,1.007895 -4.50854,1.86796 -5.4511,2.027495 -9.56348,4.104434 -13.78048,6.959803 -2.53885,1.719071 -3.51741,2.156888 -3.86048,1.727277 z m 26.78726,-13.23159 c -0.12714,-0.615736 -0.66832,-4.219033 -1.20272,-8.007322 -0.53441,-3.78829 -1.39698,-9.880433 -1.91682,-13.538111 -4.16027,-29.272146 -5.82946,-50.191896 -4.39719,-55.109736 0.84993,-2.91833 3.15899,-6.2133 5.3878,-7.68825 4.21314,-2.78813 9.19416,-1.28881 12.6162,3.79753 1.40616,2.09005 3.32645,6.50328 3.74534,8.60758 0.0997,0.50018 0.50052,1.88961 0.89101,3.08764 1.67564,5.14093 4.56052,19.922221 8.35191,42.792538 0.80124,4.833348 1.87447,11.246249 2.38498,14.250921 0.51049,3.004653 0.92817,6.478236 0.92817,7.719095 v 2.256061 l -3.44392,0.01431 c -5.99341,0.02404 -15.22274,0.891896 -17.93202,1.686036 -4.69501,1.376194 -5.15367,1.38738 -5.41274,0.132137 z"
       id="path75"
       inkscape:connector-curvature="0" />
  </g>
</svg>
